<svg width="1440" height="608" viewBox="0 0 1440 608" fill="none" xmlns="http://www.w3.org/2000/svg">
<g clip-path="url(#clip0_1_40)">
<circle cx="7.5" cy="1.5" r="1.5" fill="#D2D6DB" fill-opacity="0.2"/>
<circle cx="50.5" cy="1.5" r="1.5" fill="#D2D6DB" fill-opacity="0.2"/>
<circle cx="93.5" cy="1.5" r="1.5" fill="#D2D6DB" fill-opacity="0.2"/>
<circle cx="136.5" cy="1.5" r="1.5" fill="#D2D6DB" fill-opacity="0.2"/>
<circle cx="179.5" cy="1.5" r="1.5" fill="#D2D6DB" fill-opacity="0.2"/>
<circle cx="222.5" cy="1.5" r="1.5" fill="#D2D6DB" fill-opacity="0.2"/>
<circle cx="265.5" cy="1.5" r="1.5" fill="#D2D6DB" fill-opacity="0.2"/>
<circle cx="308.5" cy="1.5" r="1.5" fill="#D2D6DB" fill-opacity="0.2"/>
<circle cx="351.5" cy="1.5" r="1.5" fill="#D2D6DB" fill-opacity="0.2"/>
<circle cx="394.5" cy="1.5" r="1.5" fill="#D2D6DB" fill-opacity="0.2"/>
<circle cx="437.5" cy="1.5" r="1.5" fill="#D2D6DB" fill-opacity="0.2"/>
<circle cx="480.5" cy="1.5" r="1.5" fill="#D2D6DB" fill-opacity="0.2"/>
<circle cx="523.5" cy="1.5" r="1.5" fill="#D2D6DB" fill-opacity="0.2"/>
<circle cx="566.5" cy="1.5" r="1.5" fill="#D2D6DB" fill-opacity="0.2"/>
<circle cx="609.5" cy="1.5" r="1.5" fill="#D2D6DB" fill-opacity="0.2"/>
<circle cx="652.5" cy="1.5" r="1.5" fill="#D2D6DB" fill-opacity="0.2"/>
<circle cx="695.5" cy="1.5" r="1.5" fill="#D2D6DB" fill-opacity="0.2"/>
<circle cx="738.5" cy="1.5" r="1.5" fill="#D2D6DB" fill-opacity="0.2"/>
<circle cx="781.5" cy="1.5" r="1.5" fill="#D2D6DB" fill-opacity="0.2"/>
<circle cx="824.5" cy="1.5" r="1.5" fill="#D2D6DB" fill-opacity="0.2"/>
<circle cx="867.5" cy="1.5" r="1.5" fill="#D2D6DB" fill-opacity="0.2"/>
<circle cx="910.5" cy="1.5" r="1.5" fill="#D2D6DB" fill-opacity="0.2"/>
<circle cx="953.5" cy="1.5" r="1.5" fill="#D2D6DB" fill-opacity="0.2"/>
<circle cx="996.5" cy="1.5" r="1.5" fill="#D2D6DB" fill-opacity="0.2"/>
<circle cx="1039.5" cy="1.5" r="1.5" fill="#D2D6DB" fill-opacity="0.2"/>
<circle cx="1082.5" cy="1.5" r="1.5" fill="#D2D6DB" fill-opacity="0.2"/>
<circle cx="1125.5" cy="1.5" r="1.5" fill="#D2D6DB" fill-opacity="0.2"/>
<circle cx="1168.5" cy="1.5" r="1.5" fill="#D2D6DB" fill-opacity="0.2"/>
<circle cx="1211.5" cy="1.5" r="1.5" fill="#D2D6DB" fill-opacity="0.2"/>
<circle cx="1254.5" cy="1.5" r="1.5" fill="#D2D6DB" fill-opacity="0.2"/>
<circle cx="1297.5" cy="1.5" r="1.5" fill="#D2D6DB" fill-opacity="0.2"/>
<circle cx="1340.5" cy="1.5" r="1.5" fill="#D2D6DB" fill-opacity="0.2"/>
<circle cx="1383.5" cy="1.5" r="1.5" fill="#D2D6DB" fill-opacity="0.2"/>
<circle cx="1426.5" cy="1.5" r="1.5" fill="#D2D6DB" fill-opacity="0.2"/>
<circle cx="7.5" cy="44.5" r="1.5" fill="#D2D6DB" fill-opacity="0.2"/>
<circle cx="50.5" cy="44.5" r="1.5" fill="#D2D6DB" fill-opacity="0.2"/>
<circle cx="93.5" cy="44.5" r="1.5" fill="#D2D6DB" fill-opacity="0.2"/>
<circle cx="136.5" cy="44.5" r="1.5" fill="#D2D6DB" fill-opacity="0.2"/>
<circle cx="179.5" cy="44.5" r="1.5" fill="#D2D6DB" fill-opacity="0.2"/>
<circle cx="222.5" cy="44.5" r="1.5" fill="#D2D6DB" fill-opacity="0.2"/>
<circle cx="265.5" cy="44.5" r="1.5" fill="#D2D6DB" fill-opacity="0.2"/>
<circle cx="308.5" cy="44.5" r="1.5" fill="#D2D6DB" fill-opacity="0.2"/>
<circle cx="351.5" cy="44.5" r="1.5" fill="#D2D6DB" fill-opacity="0.2"/>
<circle cx="394.5" cy="44.5" r="1.5" fill="#D2D6DB" fill-opacity="0.2"/>
<circle cx="437.5" cy="44.5" r="1.5" fill="#D2D6DB" fill-opacity="0.2"/>
<circle cx="480.5" cy="44.5" r="1.5" fill="#D2D6DB" fill-opacity="0.2"/>
<circle cx="523.5" cy="44.5" r="1.5" fill="#D2D6DB" fill-opacity="0.2"/>
<circle cx="566.5" cy="44.5" r="1.5" fill="#D2D6DB" fill-opacity="0.2"/>
<circle cx="609.5" cy="44.5" r="1.5" fill="#D2D6DB" fill-opacity="0.2"/>
<circle cx="652.5" cy="44.5" r="1.5" fill="#D2D6DB" fill-opacity="0.2"/>
<circle cx="695.5" cy="44.5" r="1.5" fill="#D2D6DB" fill-opacity="0.2"/>
<circle cx="738.5" cy="44.5" r="1.5" fill="#D2D6DB" fill-opacity="0.2"/>
<circle cx="781.5" cy="44.5" r="1.5" fill="#D2D6DB" fill-opacity="0.2"/>
<circle cx="824.5" cy="44.5" r="1.5" fill="#D2D6DB" fill-opacity="0.2"/>
<circle cx="867.5" cy="44.5" r="1.5" fill="#D2D6DB" fill-opacity="0.2"/>
<circle cx="910.5" cy="44.5" r="1.5" fill="#D2D6DB" fill-opacity="0.2"/>
<circle cx="953.5" cy="44.5" r="1.5" fill="#D2D6DB" fill-opacity="0.2"/>
<circle cx="996.5" cy="44.5" r="1.5" fill="#D2D6DB" fill-opacity="0.2"/>
<circle cx="1039.5" cy="44.5" r="1.5" fill="#D2D6DB" fill-opacity="0.2"/>
<circle cx="1082.5" cy="44.5" r="1.5" fill="#D2D6DB" fill-opacity="0.2"/>
<circle cx="1125.5" cy="44.5" r="1.5" fill="#D2D6DB" fill-opacity="0.2"/>
<circle cx="1168.5" cy="44.5" r="1.5" fill="#D2D6DB" fill-opacity="0.2"/>
<circle cx="1211.5" cy="44.5" r="1.5" fill="#D2D6DB" fill-opacity="0.2"/>
<circle cx="1254.5" cy="44.5" r="1.5" fill="#D2D6DB" fill-opacity="0.2"/>
<circle cx="1297.5" cy="44.5" r="1.5" fill="#D2D6DB" fill-opacity="0.2"/>
<circle cx="1340.5" cy="44.5" r="1.5" fill="#D2D6DB" fill-opacity="0.2"/>
<circle cx="1383.5" cy="44.5" r="1.5" fill="#D2D6DB" fill-opacity="0.2"/>
<circle cx="1426.5" cy="44.5" r="1.5" fill="#D2D6DB" fill-opacity="0.2"/>
<circle cx="7.5" cy="87.5" r="1.5" fill="#D2D6DB" fill-opacity="0.2"/>
<circle cx="50.5" cy="87.5" r="1.5" fill="#D2D6DB" fill-opacity="0.2"/>
<circle cx="93.5" cy="87.5" r="1.5" fill="#D2D6DB" fill-opacity="0.2"/>
<circle cx="136.5" cy="87.5" r="1.5" fill="#D2D6DB" fill-opacity="0.2"/>
<circle cx="179.5" cy="87.5" r="1.5" fill="#D2D6DB" fill-opacity="0.2"/>
<circle cx="222.5" cy="87.5" r="1.5" fill="#D2D6DB" fill-opacity="0.2"/>
<circle cx="265.5" cy="87.5" r="1.5" fill="#D2D6DB" fill-opacity="0.2"/>
<circle cx="308.5" cy="87.5" r="1.5" fill="#D2D6DB" fill-opacity="0.2"/>
<circle cx="351.5" cy="87.5" r="1.5" fill="#D2D6DB" fill-opacity="0.2"/>
<circle cx="394.5" cy="87.5" r="1.5" fill="#D2D6DB" fill-opacity="0.2"/>
<circle cx="437.5" cy="87.5" r="1.5" fill="#D2D6DB" fill-opacity="0.2"/>
<circle cx="480.5" cy="87.5" r="1.5" fill="#D2D6DB" fill-opacity="0.2"/>
<circle cx="523.5" cy="87.5" r="1.5" fill="#D2D6DB" fill-opacity="0.2"/>
<circle cx="566.5" cy="87.5" r="1.5" fill="#D2D6DB" fill-opacity="0.2"/>
<circle cx="609.5" cy="87.5" r="1.5" fill="#D2D6DB" fill-opacity="0.2"/>
<circle cx="652.5" cy="87.5" r="1.5" fill="#D2D6DB" fill-opacity="0.2"/>
<circle cx="695.5" cy="87.5" r="1.5" fill="#D2D6DB" fill-opacity="0.2"/>
<circle cx="738.5" cy="87.5" r="1.5" fill="#D2D6DB" fill-opacity="0.2"/>
<circle cx="781.5" cy="87.5" r="1.5" fill="#D2D6DB" fill-opacity="0.2"/>
<circle cx="824.5" cy="87.5" r="1.5" fill="#D2D6DB" fill-opacity="0.2"/>
<circle cx="867.5" cy="87.5" r="1.5" fill="#D2D6DB" fill-opacity="0.2"/>
<circle cx="910.5" cy="87.5" r="1.5" fill="#D2D6DB" fill-opacity="0.2"/>
<circle cx="953.5" cy="87.5" r="1.5" fill="#D2D6DB" fill-opacity="0.2"/>
<circle cx="996.5" cy="87.5" r="1.5" fill="#D2D6DB" fill-opacity="0.2"/>
<circle cx="1039.5" cy="87.5" r="1.5" fill="#D2D6DB" fill-opacity="0.2"/>
<circle cx="1082.5" cy="87.5" r="1.5" fill="#D2D6DB" fill-opacity="0.2"/>
<circle cx="1125.5" cy="87.5" r="1.5" fill="#D2D6DB" fill-opacity="0.2"/>
<circle cx="1168.5" cy="87.5" r="1.5" fill="#D2D6DB" fill-opacity="0.2"/>
<circle cx="1211.5" cy="87.5" r="1.5" fill="#D2D6DB" fill-opacity="0.2"/>
<circle cx="1254.5" cy="87.5" r="1.5" fill="#D2D6DB" fill-opacity="0.2"/>
<circle cx="1297.5" cy="87.5" r="1.5" fill="#D2D6DB" fill-opacity="0.2"/>
<circle cx="1340.5" cy="87.5" r="1.5" fill="#D2D6DB" fill-opacity="0.2"/>
<circle cx="1383.5" cy="87.5" r="1.5" fill="#D2D6DB" fill-opacity="0.2"/>
<circle cx="1426.5" cy="87.5" r="1.5" fill="#D2D6DB" fill-opacity="0.2"/>
<circle cx="7.5" cy="130.5" r="1.5" fill="#D2D6DB" fill-opacity="0.2"/>
<circle cx="50.5" cy="130.5" r="1.5" fill="#D2D6DB" fill-opacity="0.2"/>
<circle cx="93.5" cy="130.5" r="1.5" fill="#D2D6DB" fill-opacity="0.2"/>
<circle cx="136.5" cy="130.5" r="1.5" fill="#D2D6DB" fill-opacity="0.2"/>
<circle cx="179.5" cy="130.5" r="1.5" fill="#D2D6DB" fill-opacity="0.2"/>
<circle cx="222.5" cy="130.5" r="1.5" fill="#D2D6DB" fill-opacity="0.2"/>
<circle cx="265.5" cy="130.5" r="1.5" fill="#D2D6DB" fill-opacity="0.2"/>
<circle cx="308.5" cy="130.5" r="1.5" fill="#D2D6DB" fill-opacity="0.2"/>
<circle cx="351.5" cy="130.5" r="1.5" fill="#D2D6DB" fill-opacity="0.2"/>
<circle cx="394.5" cy="130.5" r="1.5" fill="#D2D6DB" fill-opacity="0.2"/>
<circle cx="437.5" cy="130.5" r="1.5" fill="#D2D6DB" fill-opacity="0.2"/>
<circle cx="480.5" cy="130.5" r="1.5" fill="#D2D6DB" fill-opacity="0.2"/>
<circle cx="523.5" cy="130.5" r="1.5" fill="#D2D6DB" fill-opacity="0.2"/>
<circle cx="566.5" cy="130.5" r="1.5" fill="#D2D6DB" fill-opacity="0.2"/>
<circle cx="609.5" cy="130.5" r="1.5" fill="#D2D6DB" fill-opacity="0.2"/>
<circle cx="652.5" cy="130.5" r="1.5" fill="#D2D6DB" fill-opacity="0.2"/>
<circle cx="695.5" cy="130.5" r="1.5" fill="#D2D6DB" fill-opacity="0.2"/>
<circle cx="738.5" cy="130.5" r="1.5" fill="#D2D6DB" fill-opacity="0.2"/>
<circle cx="781.5" cy="130.5" r="1.5" fill="#D2D6DB" fill-opacity="0.2"/>
<circle cx="824.5" cy="130.5" r="1.5" fill="#D2D6DB" fill-opacity="0.2"/>
<circle cx="867.5" cy="130.5" r="1.5" fill="#D2D6DB" fill-opacity="0.2"/>
<circle cx="910.5" cy="130.5" r="1.5" fill="#D2D6DB" fill-opacity="0.2"/>
<circle cx="953.5" cy="130.5" r="1.5" fill="#D2D6DB" fill-opacity="0.2"/>
<circle cx="996.5" cy="130.5" r="1.5" fill="#D2D6DB" fill-opacity="0.2"/>
<circle cx="1039.5" cy="130.5" r="1.5" fill="#D2D6DB" fill-opacity="0.2"/>
<circle cx="1082.5" cy="130.5" r="1.5" fill="#D2D6DB" fill-opacity="0.2"/>
<circle cx="1125.5" cy="130.5" r="1.5" fill="#D2D6DB" fill-opacity="0.2"/>
<circle cx="1168.5" cy="130.5" r="1.5" fill="#D2D6DB" fill-opacity="0.2"/>
<circle cx="1211.5" cy="130.5" r="1.5" fill="#D2D6DB" fill-opacity="0.2"/>
<circle cx="1254.5" cy="130.5" r="1.5" fill="#D2D6DB" fill-opacity="0.2"/>
<circle cx="1297.5" cy="130.5" r="1.5" fill="#D2D6DB" fill-opacity="0.2"/>
<circle cx="1340.5" cy="130.5" r="1.5" fill="#D2D6DB" fill-opacity="0.2"/>
<circle cx="1383.5" cy="130.5" r="1.5" fill="#D2D6DB" fill-opacity="0.2"/>
<circle cx="1426.5" cy="130.5" r="1.5" fill="#D2D6DB" fill-opacity="0.2"/>
<circle cx="7.5" cy="173.5" r="1.5" fill="#D2D6DB" fill-opacity="0.2"/>
<circle cx="50.5" cy="173.5" r="1.5" fill="#D2D6DB" fill-opacity="0.2"/>
<circle cx="93.5" cy="173.5" r="1.5" fill="#D2D6DB" fill-opacity="0.2"/>
<circle cx="136.5" cy="173.5" r="1.5" fill="#D2D6DB" fill-opacity="0.2"/>
<circle cx="179.5" cy="173.5" r="1.5" fill="#D2D6DB" fill-opacity="0.2"/>
<circle cx="222.5" cy="173.5" r="1.5" fill="#D2D6DB" fill-opacity="0.2"/>
<circle cx="265.5" cy="173.5" r="1.5" fill="#D2D6DB" fill-opacity="0.2"/>
<circle cx="308.5" cy="173.5" r="1.5" fill="#D2D6DB" fill-opacity="0.2"/>
<circle cx="351.5" cy="173.5" r="1.5" fill="#D2D6DB" fill-opacity="0.2"/>
<circle cx="394.5" cy="173.5" r="1.5" fill="#D2D6DB" fill-opacity="0.2"/>
<circle cx="437.5" cy="173.5" r="1.5" fill="#D2D6DB" fill-opacity="0.2"/>
<circle cx="480.5" cy="173.5" r="1.5" fill="#D2D6DB" fill-opacity="0.2"/>
<circle cx="523.5" cy="173.5" r="1.5" fill="#D2D6DB" fill-opacity="0.2"/>
<circle cx="566.5" cy="173.5" r="1.5" fill="#D2D6DB" fill-opacity="0.2"/>
<circle cx="609.5" cy="173.5" r="1.5" fill="#D2D6DB" fill-opacity="0.2"/>
<circle cx="652.5" cy="173.5" r="1.5" fill="#D2D6DB" fill-opacity="0.2"/>
<circle cx="695.5" cy="173.5" r="1.5" fill="#D2D6DB" fill-opacity="0.2"/>
<circle cx="738.5" cy="173.5" r="1.5" fill="#D2D6DB" fill-opacity="0.2"/>
<circle cx="781.5" cy="173.5" r="1.5" fill="#D2D6DB" fill-opacity="0.2"/>
<circle cx="824.5" cy="173.5" r="1.5" fill="#D2D6DB" fill-opacity="0.2"/>
<circle cx="867.5" cy="173.5" r="1.5" fill="#D2D6DB" fill-opacity="0.2"/>
<circle cx="910.5" cy="173.5" r="1.5" fill="#D2D6DB" fill-opacity="0.2"/>
<circle cx="953.5" cy="173.5" r="1.5" fill="#D2D6DB" fill-opacity="0.2"/>
<circle cx="996.5" cy="173.5" r="1.5" fill="#D2D6DB" fill-opacity="0.2"/>
<circle cx="1039.5" cy="173.5" r="1.5" fill="#D2D6DB" fill-opacity="0.2"/>
<circle cx="1082.5" cy="173.5" r="1.5" fill="#D2D6DB" fill-opacity="0.2"/>
<circle cx="1125.5" cy="173.5" r="1.5" fill="#D2D6DB" fill-opacity="0.2"/>
<circle cx="1168.5" cy="173.5" r="1.5" fill="#D2D6DB" fill-opacity="0.2"/>
<circle cx="1211.5" cy="173.5" r="1.5" fill="#D2D6DB" fill-opacity="0.2"/>
<circle cx="1254.5" cy="173.5" r="1.5" fill="#D2D6DB" fill-opacity="0.2"/>
<circle cx="1297.5" cy="173.5" r="1.5" fill="#D2D6DB" fill-opacity="0.2"/>
<circle cx="1340.5" cy="173.5" r="1.5" fill="#D2D6DB" fill-opacity="0.2"/>
<circle cx="1383.5" cy="173.5" r="1.5" fill="#D2D6DB" fill-opacity="0.2"/>
<circle cx="1426.5" cy="173.5" r="1.5" fill="#D2D6DB" fill-opacity="0.2"/>
<circle cx="7.5" cy="216.5" r="1.5" fill="#D2D6DB" fill-opacity="0.2"/>
<circle cx="50.5" cy="216.5" r="1.5" fill="#D2D6DB" fill-opacity="0.2"/>
<circle cx="93.5" cy="216.5" r="1.5" fill="#D2D6DB" fill-opacity="0.2"/>
<circle cx="136.5" cy="216.5" r="1.5" fill="#D2D6DB" fill-opacity="0.2"/>
<circle cx="179.5" cy="216.5" r="1.5" fill="#D2D6DB" fill-opacity="0.2"/>
<circle cx="222.5" cy="216.5" r="1.5" fill="#D2D6DB" fill-opacity="0.2"/>
<circle cx="265.5" cy="216.5" r="1.5" fill="#D2D6DB" fill-opacity="0.2"/>
<circle cx="308.5" cy="216.5" r="1.5" fill="#D2D6DB" fill-opacity="0.2"/>
<circle cx="351.5" cy="216.5" r="1.5" fill="#D2D6DB" fill-opacity="0.2"/>
<circle cx="394.5" cy="216.5" r="1.5" fill="#D2D6DB" fill-opacity="0.2"/>
<circle cx="437.5" cy="216.5" r="1.5" fill="#D2D6DB" fill-opacity="0.2"/>
<circle cx="480.5" cy="216.5" r="1.5" fill="#D2D6DB" fill-opacity="0.2"/>
<circle cx="523.5" cy="216.5" r="1.5" fill="#D2D6DB" fill-opacity="0.2"/>
<circle cx="566.5" cy="216.5" r="1.5" fill="#D2D6DB" fill-opacity="0.2"/>
<circle cx="609.5" cy="216.5" r="1.5" fill="#D2D6DB" fill-opacity="0.2"/>
<circle cx="652.5" cy="216.5" r="1.5" fill="#D2D6DB" fill-opacity="0.2"/>
<circle cx="695.5" cy="216.5" r="1.5" fill="#D2D6DB" fill-opacity="0.2"/>
<circle cx="738.5" cy="216.5" r="1.5" fill="#D2D6DB" fill-opacity="0.2"/>
<circle cx="781.5" cy="216.5" r="1.5" fill="#D2D6DB" fill-opacity="0.2"/>
<circle cx="824.5" cy="216.5" r="1.5" fill="#D2D6DB" fill-opacity="0.2"/>
<circle cx="867.5" cy="216.5" r="1.5" fill="#D2D6DB" fill-opacity="0.2"/>
<circle cx="910.5" cy="216.5" r="1.5" fill="#D2D6DB" fill-opacity="0.2"/>
<circle cx="953.5" cy="216.5" r="1.5" fill="#D2D6DB" fill-opacity="0.2"/>
<circle cx="996.5" cy="216.5" r="1.5" fill="#D2D6DB" fill-opacity="0.2"/>
<circle cx="1039.5" cy="216.5" r="1.5" fill="#D2D6DB" fill-opacity="0.2"/>
<circle cx="1082.5" cy="216.5" r="1.5" fill="#D2D6DB" fill-opacity="0.2"/>
<circle cx="1125.5" cy="216.5" r="1.5" fill="#D2D6DB" fill-opacity="0.2"/>
<circle cx="1168.5" cy="216.5" r="1.5" fill="#D2D6DB" fill-opacity="0.2"/>
<circle cx="1211.5" cy="216.5" r="1.5" fill="#D2D6DB" fill-opacity="0.2"/>
<circle cx="1254.5" cy="216.5" r="1.5" fill="#D2D6DB" fill-opacity="0.2"/>
<circle cx="1297.5" cy="216.5" r="1.5" fill="#D2D6DB" fill-opacity="0.2"/>
<circle cx="1340.5" cy="216.5" r="1.5" fill="#D2D6DB" fill-opacity="0.2"/>
<circle cx="1383.5" cy="216.5" r="1.5" fill="#D2D6DB" fill-opacity="0.2"/>
<circle cx="1426.5" cy="216.5" r="1.5" fill="#D2D6DB" fill-opacity="0.2"/>
<circle cx="7.5" cy="259.5" r="1.5" fill="#D2D6DB" fill-opacity="0.2"/>
<circle cx="50.5" cy="259.5" r="1.5" fill="#D2D6DB" fill-opacity="0.2"/>
<circle cx="93.5" cy="259.5" r="1.5" fill="#D2D6DB" fill-opacity="0.2"/>
<circle cx="136.5" cy="259.5" r="1.5" fill="#D2D6DB" fill-opacity="0.2"/>
<circle cx="179.5" cy="259.5" r="1.5" fill="#D2D6DB" fill-opacity="0.2"/>
<circle cx="222.5" cy="259.5" r="1.5" fill="#D2D6DB" fill-opacity="0.2"/>
<circle cx="265.5" cy="259.5" r="1.5" fill="#D2D6DB" fill-opacity="0.2"/>
<circle cx="308.5" cy="259.5" r="1.5" fill="#D2D6DB" fill-opacity="0.2"/>
<circle cx="351.5" cy="259.5" r="1.5" fill="#D2D6DB" fill-opacity="0.2"/>
<circle cx="394.5" cy="259.5" r="1.5" fill="#D2D6DB" fill-opacity="0.2"/>
<circle cx="437.5" cy="259.5" r="1.5" fill="#D2D6DB" fill-opacity="0.2"/>
<circle cx="480.5" cy="259.5" r="1.5" fill="#D2D6DB" fill-opacity="0.2"/>
<circle cx="523.5" cy="259.5" r="1.5" fill="#D2D6DB" fill-opacity="0.2"/>
<circle cx="566.5" cy="259.5" r="1.5" fill="#D2D6DB" fill-opacity="0.2"/>
<circle cx="609.5" cy="259.5" r="1.5" fill="#D2D6DB" fill-opacity="0.2"/>
<circle cx="652.5" cy="259.5" r="1.5" fill="#D2D6DB" fill-opacity="0.2"/>
<circle cx="695.5" cy="259.5" r="1.5" fill="#D2D6DB" fill-opacity="0.2"/>
<circle cx="738.5" cy="259.5" r="1.5" fill="#D2D6DB" fill-opacity="0.2"/>
<circle cx="781.5" cy="259.5" r="1.5" fill="#D2D6DB" fill-opacity="0.2"/>
<circle cx="824.5" cy="259.5" r="1.5" fill="#D2D6DB" fill-opacity="0.2"/>
<circle cx="867.5" cy="259.5" r="1.5" fill="#D2D6DB" fill-opacity="0.2"/>
<circle cx="910.5" cy="259.5" r="1.5" fill="#D2D6DB" fill-opacity="0.2"/>
<circle cx="953.5" cy="259.5" r="1.5" fill="#D2D6DB" fill-opacity="0.2"/>
<circle cx="996.5" cy="259.5" r="1.5" fill="#D2D6DB" fill-opacity="0.2"/>
<circle cx="1039.5" cy="259.5" r="1.5" fill="#D2D6DB" fill-opacity="0.2"/>
<circle cx="1082.5" cy="259.5" r="1.5" fill="#D2D6DB" fill-opacity="0.2"/>
<circle cx="1125.5" cy="259.5" r="1.5" fill="#D2D6DB" fill-opacity="0.2"/>
<circle cx="1168.5" cy="259.5" r="1.5" fill="#D2D6DB" fill-opacity="0.2"/>
<circle cx="1211.5" cy="259.5" r="1.5" fill="#D2D6DB" fill-opacity="0.2"/>
<circle cx="1254.5" cy="259.5" r="1.5" fill="#D2D6DB" fill-opacity="0.2"/>
<circle cx="1297.5" cy="259.5" r="1.5" fill="#D2D6DB" fill-opacity="0.2"/>
<circle cx="1340.5" cy="259.5" r="1.5" fill="#D2D6DB" fill-opacity="0.2"/>
<circle cx="1383.5" cy="259.5" r="1.5" fill="#D2D6DB" fill-opacity="0.2"/>
<circle cx="1426.5" cy="259.5" r="1.5" fill="#D2D6DB" fill-opacity="0.2"/>
<circle cx="7.5" cy="302.5" r="1.5" fill="#D2D6DB" fill-opacity="0.2"/>
<circle cx="50.5" cy="302.5" r="1.5" fill="#D2D6DB" fill-opacity="0.2"/>
<circle cx="93.5" cy="302.5" r="1.5" fill="#D2D6DB" fill-opacity="0.2"/>
<circle cx="136.5" cy="302.5" r="1.5" fill="#D2D6DB" fill-opacity="0.2"/>
<circle cx="179.5" cy="302.5" r="1.5" fill="#D2D6DB" fill-opacity="0.2"/>
<circle cx="222.5" cy="302.5" r="1.5" fill="#D2D6DB" fill-opacity="0.2"/>
<circle cx="265.5" cy="302.5" r="1.5" fill="#D2D6DB" fill-opacity="0.2"/>
<circle cx="308.5" cy="302.5" r="1.5" fill="#D2D6DB" fill-opacity="0.2"/>
<circle cx="351.5" cy="302.5" r="1.5" fill="#D2D6DB" fill-opacity="0.2"/>
<circle cx="394.5" cy="302.5" r="1.5" fill="#D2D6DB" fill-opacity="0.2"/>
<circle cx="437.5" cy="302.5" r="1.5" fill="#D2D6DB" fill-opacity="0.2"/>
<circle cx="480.5" cy="302.5" r="1.5" fill="#D2D6DB" fill-opacity="0.2"/>
<circle cx="523.5" cy="302.5" r="1.5" fill="#D2D6DB" fill-opacity="0.2"/>
<circle cx="566.5" cy="302.5" r="1.5" fill="#D2D6DB" fill-opacity="0.2"/>
<circle cx="609.5" cy="302.5" r="1.5" fill="#D2D6DB" fill-opacity="0.2"/>
<circle cx="652.5" cy="302.5" r="1.5" fill="#D2D6DB" fill-opacity="0.2"/>
<circle cx="695.5" cy="302.5" r="1.5" fill="#D2D6DB" fill-opacity="0.2"/>
<circle cx="738.5" cy="302.5" r="1.5" fill="#D2D6DB" fill-opacity="0.2"/>
<circle cx="781.5" cy="302.5" r="1.5" fill="#D2D6DB" fill-opacity="0.2"/>
<circle cx="824.5" cy="302.5" r="1.5" fill="#D2D6DB" fill-opacity="0.2"/>
<circle cx="867.5" cy="302.5" r="1.5" fill="#D2D6DB" fill-opacity="0.2"/>
<circle cx="910.5" cy="302.5" r="1.5" fill="#D2D6DB" fill-opacity="0.2"/>
<circle cx="953.5" cy="302.5" r="1.5" fill="#D2D6DB" fill-opacity="0.2"/>
<circle cx="996.5" cy="302.5" r="1.5" fill="#D2D6DB" fill-opacity="0.2"/>
<circle cx="1039.5" cy="302.5" r="1.5" fill="#D2D6DB" fill-opacity="0.2"/>
<circle cx="1082.5" cy="302.5" r="1.5" fill="#D2D6DB" fill-opacity="0.2"/>
<circle cx="1125.5" cy="302.5" r="1.5" fill="#D2D6DB" fill-opacity="0.2"/>
<circle cx="1168.5" cy="302.5" r="1.5" fill="#D2D6DB" fill-opacity="0.2"/>
<circle cx="1211.5" cy="302.5" r="1.5" fill="#D2D6DB" fill-opacity="0.2"/>
<circle cx="1254.5" cy="302.5" r="1.5" fill="#D2D6DB" fill-opacity="0.2"/>
<circle cx="1297.5" cy="302.5" r="1.5" fill="#D2D6DB" fill-opacity="0.2"/>
<circle cx="1340.5" cy="302.5" r="1.5" fill="#D2D6DB" fill-opacity="0.2"/>
<circle cx="1383.5" cy="302.5" r="1.5" fill="#D2D6DB" fill-opacity="0.2"/>
<circle cx="1426.5" cy="302.5" r="1.5" fill="#D2D6DB" fill-opacity="0.2"/>
<circle cx="7.5" cy="345.5" r="1.5" fill="#D2D6DB" fill-opacity="0.2"/>
<circle cx="50.5" cy="345.5" r="1.5" fill="#D2D6DB" fill-opacity="0.2"/>
<circle cx="93.5" cy="345.5" r="1.5" fill="#D2D6DB" fill-opacity="0.2"/>
<circle cx="136.5" cy="345.5" r="1.5" fill="#D2D6DB" fill-opacity="0.2"/>
<circle cx="179.5" cy="345.5" r="1.5" fill="#D2D6DB" fill-opacity="0.2"/>
<circle cx="222.5" cy="345.5" r="1.5" fill="#D2D6DB" fill-opacity="0.2"/>
<circle cx="265.5" cy="345.5" r="1.5" fill="#D2D6DB" fill-opacity="0.2"/>
<circle cx="308.5" cy="345.5" r="1.5" fill="#D2D6DB" fill-opacity="0.2"/>
<circle cx="351.5" cy="345.5" r="1.5" fill="#D2D6DB" fill-opacity="0.2"/>
<circle cx="394.5" cy="345.5" r="1.5" fill="#D2D6DB" fill-opacity="0.2"/>
<circle cx="437.5" cy="345.5" r="1.5" fill="#D2D6DB" fill-opacity="0.2"/>
<circle cx="480.5" cy="345.5" r="1.5" fill="#D2D6DB" fill-opacity="0.2"/>
<circle cx="523.5" cy="345.5" r="1.5" fill="#D2D6DB" fill-opacity="0.2"/>
<circle cx="566.5" cy="345.5" r="1.5" fill="#D2D6DB" fill-opacity="0.2"/>
<circle cx="609.5" cy="345.5" r="1.5" fill="#D2D6DB" fill-opacity="0.2"/>
<circle cx="652.5" cy="345.5" r="1.5" fill="#D2D6DB" fill-opacity="0.2"/>
<circle cx="695.5" cy="345.5" r="1.5" fill="#D2D6DB" fill-opacity="0.2"/>
<circle cx="738.5" cy="345.5" r="1.5" fill="#D2D6DB" fill-opacity="0.2"/>
<circle cx="781.5" cy="345.5" r="1.5" fill="#D2D6DB" fill-opacity="0.2"/>
<circle cx="824.5" cy="345.5" r="1.5" fill="#D2D6DB" fill-opacity="0.2"/>
<circle cx="867.5" cy="345.5" r="1.5" fill="#D2D6DB" fill-opacity="0.2"/>
<circle cx="910.5" cy="345.5" r="1.5" fill="#D2D6DB" fill-opacity="0.2"/>
<circle cx="953.5" cy="345.5" r="1.5" fill="#D2D6DB" fill-opacity="0.2"/>
<circle cx="996.5" cy="345.5" r="1.5" fill="#D2D6DB" fill-opacity="0.2"/>
<circle cx="1039.5" cy="345.5" r="1.5" fill="#D2D6DB" fill-opacity="0.2"/>
<circle cx="1082.5" cy="345.5" r="1.5" fill="#D2D6DB" fill-opacity="0.2"/>
<circle cx="1125.5" cy="345.5" r="1.5" fill="#D2D6DB" fill-opacity="0.2"/>
<circle cx="1168.5" cy="345.5" r="1.5" fill="#D2D6DB" fill-opacity="0.2"/>
<circle cx="1211.5" cy="345.5" r="1.5" fill="#D2D6DB" fill-opacity="0.2"/>
<circle cx="1254.5" cy="345.5" r="1.5" fill="#D2D6DB" fill-opacity="0.2"/>
<circle cx="1297.5" cy="345.5" r="1.5" fill="#D2D6DB" fill-opacity="0.2"/>
<circle cx="1340.5" cy="345.5" r="1.5" fill="#D2D6DB" fill-opacity="0.2"/>
<circle cx="1383.5" cy="345.5" r="1.5" fill="#D2D6DB" fill-opacity="0.2"/>
<circle cx="1426.5" cy="345.5" r="1.5" fill="#D2D6DB" fill-opacity="0.2"/>
<circle cx="7.5" cy="388.5" r="1.5" fill="#D2D6DB" fill-opacity="0.2"/>
<circle cx="50.5" cy="388.5" r="1.5" fill="#D2D6DB" fill-opacity="0.2"/>
<circle cx="93.5" cy="388.5" r="1.5" fill="#D2D6DB" fill-opacity="0.2"/>
<circle cx="136.5" cy="388.5" r="1.5" fill="#D2D6DB" fill-opacity="0.2"/>
<circle cx="179.5" cy="388.5" r="1.5" fill="#D2D6DB" fill-opacity="0.2"/>
<circle cx="222.5" cy="388.5" r="1.5" fill="#D2D6DB" fill-opacity="0.2"/>
<circle cx="265.5" cy="388.5" r="1.5" fill="#D2D6DB" fill-opacity="0.2"/>
<circle cx="308.5" cy="388.5" r="1.5" fill="#D2D6DB" fill-opacity="0.2"/>
<circle cx="351.5" cy="388.5" r="1.5" fill="#D2D6DB" fill-opacity="0.2"/>
<circle cx="394.5" cy="388.5" r="1.5" fill="#D2D6DB" fill-opacity="0.2"/>
<circle cx="437.5" cy="388.5" r="1.5" fill="#D2D6DB" fill-opacity="0.2"/>
<circle cx="480.5" cy="388.5" r="1.5" fill="#D2D6DB" fill-opacity="0.2"/>
<circle cx="523.5" cy="388.5" r="1.5" fill="#D2D6DB" fill-opacity="0.2"/>
<circle cx="566.5" cy="388.5" r="1.5" fill="#D2D6DB" fill-opacity="0.2"/>
<circle cx="609.5" cy="388.5" r="1.5" fill="#D2D6DB" fill-opacity="0.2"/>
<circle cx="652.5" cy="388.5" r="1.5" fill="#D2D6DB" fill-opacity="0.2"/>
<circle cx="695.5" cy="388.5" r="1.5" fill="#D2D6DB" fill-opacity="0.2"/>
<circle cx="738.5" cy="388.5" r="1.5" fill="#D2D6DB" fill-opacity="0.2"/>
<circle cx="781.5" cy="388.5" r="1.5" fill="#D2D6DB" fill-opacity="0.2"/>
<circle cx="824.5" cy="388.5" r="1.5" fill="#D2D6DB" fill-opacity="0.2"/>
<circle cx="867.5" cy="388.5" r="1.5" fill="#D2D6DB" fill-opacity="0.2"/>
<circle cx="910.5" cy="388.5" r="1.5" fill="#D2D6DB" fill-opacity="0.2"/>
<circle cx="953.5" cy="388.5" r="1.5" fill="#D2D6DB" fill-opacity="0.2"/>
<circle cx="996.5" cy="388.5" r="1.5" fill="#D2D6DB" fill-opacity="0.2"/>
<circle cx="1039.5" cy="388.5" r="1.5" fill="#D2D6DB" fill-opacity="0.2"/>
<circle cx="1082.5" cy="388.5" r="1.5" fill="#D2D6DB" fill-opacity="0.2"/>
<circle cx="1125.5" cy="388.5" r="1.5" fill="#D2D6DB" fill-opacity="0.2"/>
<circle cx="1168.5" cy="388.5" r="1.5" fill="#D2D6DB" fill-opacity="0.2"/>
<circle cx="1211.5" cy="388.5" r="1.5" fill="#D2D6DB" fill-opacity="0.2"/>
<circle cx="1254.5" cy="388.5" r="1.5" fill="#D2D6DB" fill-opacity="0.2"/>
<circle cx="1297.5" cy="388.5" r="1.5" fill="#D2D6DB" fill-opacity="0.2"/>
<circle cx="1340.5" cy="388.5" r="1.5" fill="#D2D6DB" fill-opacity="0.2"/>
<circle cx="1383.5" cy="388.5" r="1.5" fill="#D2D6DB" fill-opacity="0.2"/>
<circle cx="1426.5" cy="388.5" r="1.5" fill="#D2D6DB" fill-opacity="0.2"/>
<circle cx="7.5" cy="431.5" r="1.5" fill="#D2D6DB" fill-opacity="0.2"/>
<circle cx="50.5" cy="431.5" r="1.5" fill="#D2D6DB" fill-opacity="0.2"/>
<circle cx="93.5" cy="431.5" r="1.5" fill="#D2D6DB" fill-opacity="0.2"/>
<circle cx="136.5" cy="431.5" r="1.5" fill="#D2D6DB" fill-opacity="0.2"/>
<circle cx="179.5" cy="431.5" r="1.5" fill="#D2D6DB" fill-opacity="0.2"/>
<circle cx="222.5" cy="431.5" r="1.5" fill="#D2D6DB" fill-opacity="0.2"/>
<circle cx="265.5" cy="431.5" r="1.5" fill="#D2D6DB" fill-opacity="0.2"/>
<circle cx="308.5" cy="431.5" r="1.5" fill="#D2D6DB" fill-opacity="0.2"/>
<circle cx="351.5" cy="431.5" r="1.5" fill="#D2D6DB" fill-opacity="0.2"/>
<circle cx="394.5" cy="431.5" r="1.5" fill="#D2D6DB" fill-opacity="0.2"/>
<circle cx="437.5" cy="431.5" r="1.5" fill="#D2D6DB" fill-opacity="0.2"/>
<circle cx="480.5" cy="431.5" r="1.5" fill="#D2D6DB" fill-opacity="0.2"/>
<circle cx="523.5" cy="431.5" r="1.5" fill="#D2D6DB" fill-opacity="0.2"/>
<circle cx="566.5" cy="431.5" r="1.5" fill="#D2D6DB" fill-opacity="0.2"/>
<circle cx="609.5" cy="431.5" r="1.5" fill="#D2D6DB" fill-opacity="0.2"/>
<circle cx="652.5" cy="431.5" r="1.5" fill="#D2D6DB" fill-opacity="0.2"/>
<circle cx="695.5" cy="431.5" r="1.5" fill="#D2D6DB" fill-opacity="0.2"/>
<circle cx="738.5" cy="431.5" r="1.5" fill="#D2D6DB" fill-opacity="0.2"/>
<circle cx="781.5" cy="431.5" r="1.5" fill="#D2D6DB" fill-opacity="0.2"/>
<circle cx="824.5" cy="431.5" r="1.5" fill="#D2D6DB" fill-opacity="0.2"/>
<circle cx="867.5" cy="431.5" r="1.5" fill="#D2D6DB" fill-opacity="0.2"/>
<circle cx="910.5" cy="431.5" r="1.5" fill="#D2D6DB" fill-opacity="0.2"/>
<circle cx="953.5" cy="431.5" r="1.5" fill="#D2D6DB" fill-opacity="0.2"/>
<circle cx="996.5" cy="431.5" r="1.5" fill="#D2D6DB" fill-opacity="0.2"/>
<circle cx="1039.5" cy="431.5" r="1.5" fill="#D2D6DB" fill-opacity="0.2"/>
<circle cx="1082.5" cy="431.5" r="1.5" fill="#D2D6DB" fill-opacity="0.2"/>
<circle cx="1125.5" cy="431.5" r="1.5" fill="#D2D6DB" fill-opacity="0.2"/>
<circle cx="1168.5" cy="431.5" r="1.5" fill="#D2D6DB" fill-opacity="0.2"/>
<circle cx="1211.5" cy="431.5" r="1.5" fill="#D2D6DB" fill-opacity="0.2"/>
<circle cx="1254.5" cy="431.5" r="1.5" fill="#D2D6DB" fill-opacity="0.2"/>
<circle cx="1297.5" cy="431.5" r="1.5" fill="#D2D6DB" fill-opacity="0.2"/>
<circle cx="1340.5" cy="431.5" r="1.5" fill="#D2D6DB" fill-opacity="0.2"/>
<circle cx="1383.5" cy="431.5" r="1.5" fill="#D2D6DB" fill-opacity="0.2"/>
<circle cx="1426.5" cy="431.5" r="1.5" fill="#D2D6DB" fill-opacity="0.2"/>
<circle cx="7.5" cy="474.5" r="1.5" fill="#D2D6DB" fill-opacity="0.2"/>
<circle cx="50.5" cy="474.5" r="1.5" fill="#D2D6DB" fill-opacity="0.2"/>
<circle cx="93.5" cy="474.5" r="1.5" fill="#D2D6DB" fill-opacity="0.2"/>
<circle cx="136.5" cy="474.5" r="1.5" fill="#D2D6DB" fill-opacity="0.2"/>
<circle cx="179.5" cy="474.5" r="1.5" fill="#D2D6DB" fill-opacity="0.2"/>
<circle cx="222.5" cy="474.5" r="1.5" fill="#D2D6DB" fill-opacity="0.2"/>
<circle cx="265.5" cy="474.5" r="1.5" fill="#D2D6DB" fill-opacity="0.2"/>
<circle cx="308.5" cy="474.5" r="1.5" fill="#D2D6DB" fill-opacity="0.2"/>
<circle cx="351.5" cy="474.5" r="1.5" fill="#D2D6DB" fill-opacity="0.2"/>
<circle cx="394.5" cy="474.5" r="1.5" fill="#D2D6DB" fill-opacity="0.2"/>
<circle cx="437.5" cy="474.5" r="1.5" fill="#D2D6DB" fill-opacity="0.2"/>
<circle cx="480.5" cy="474.5" r="1.5" fill="#D2D6DB" fill-opacity="0.2"/>
<circle cx="523.5" cy="474.5" r="1.5" fill="#D2D6DB" fill-opacity="0.2"/>
<circle cx="566.5" cy="474.5" r="1.5" fill="#D2D6DB" fill-opacity="0.2"/>
<circle cx="609.5" cy="474.5" r="1.5" fill="#D2D6DB" fill-opacity="0.2"/>
<circle cx="652.5" cy="474.5" r="1.5" fill="#D2D6DB" fill-opacity="0.2"/>
<circle cx="695.5" cy="474.5" r="1.5" fill="#D2D6DB" fill-opacity="0.2"/>
<circle cx="738.5" cy="474.5" r="1.5" fill="#D2D6DB" fill-opacity="0.2"/>
<circle cx="781.5" cy="474.5" r="1.5" fill="#D2D6DB" fill-opacity="0.2"/>
<circle cx="824.5" cy="474.5" r="1.5" fill="#D2D6DB" fill-opacity="0.2"/>
<circle cx="867.5" cy="474.5" r="1.5" fill="#D2D6DB" fill-opacity="0.2"/>
<circle cx="910.5" cy="474.5" r="1.5" fill="#D2D6DB" fill-opacity="0.2"/>
<circle cx="953.5" cy="474.5" r="1.5" fill="#D2D6DB" fill-opacity="0.2"/>
<circle cx="996.5" cy="474.5" r="1.5" fill="#D2D6DB" fill-opacity="0.2"/>
<circle cx="1039.5" cy="474.5" r="1.5" fill="#D2D6DB" fill-opacity="0.2"/>
<circle cx="1082.5" cy="474.5" r="1.5" fill="#D2D6DB" fill-opacity="0.2"/>
<circle cx="1125.5" cy="474.5" r="1.5" fill="#D2D6DB" fill-opacity="0.2"/>
<circle cx="1168.5" cy="474.5" r="1.5" fill="#D2D6DB" fill-opacity="0.2"/>
<circle cx="1211.5" cy="474.5" r="1.5" fill="#D2D6DB" fill-opacity="0.2"/>
<circle cx="1254.5" cy="474.5" r="1.5" fill="#D2D6DB" fill-opacity="0.2"/>
<circle cx="1297.5" cy="474.5" r="1.5" fill="#D2D6DB" fill-opacity="0.2"/>
<circle cx="1340.5" cy="474.5" r="1.5" fill="#D2D6DB" fill-opacity="0.2"/>
<circle cx="1383.5" cy="474.5" r="1.5" fill="#D2D6DB" fill-opacity="0.2"/>
<circle cx="1426.5" cy="474.5" r="1.5" fill="#D2D6DB" fill-opacity="0.2"/>
<circle cx="7.5" cy="517.5" r="1.5" fill="#D2D6DB" fill-opacity="0.2"/>
<circle cx="50.5" cy="517.5" r="1.5" fill="#D2D6DB" fill-opacity="0.2"/>
<circle cx="93.5" cy="517.5" r="1.5" fill="#D2D6DB" fill-opacity="0.2"/>
<circle cx="136.5" cy="517.5" r="1.5" fill="#D2D6DB" fill-opacity="0.2"/>
<circle cx="179.5" cy="517.5" r="1.5" fill="#D2D6DB" fill-opacity="0.2"/>
<circle cx="222.5" cy="517.5" r="1.5" fill="#D2D6DB" fill-opacity="0.2"/>
<circle cx="265.5" cy="517.5" r="1.5" fill="#D2D6DB" fill-opacity="0.2"/>
<circle cx="308.5" cy="517.5" r="1.5" fill="#D2D6DB" fill-opacity="0.2"/>
<circle cx="351.5" cy="517.5" r="1.5" fill="#D2D6DB" fill-opacity="0.2"/>
<circle cx="394.5" cy="517.5" r="1.5" fill="#D2D6DB" fill-opacity="0.2"/>
<circle cx="437.5" cy="517.5" r="1.5" fill="#D2D6DB" fill-opacity="0.2"/>
<circle cx="480.5" cy="517.5" r="1.5" fill="#D2D6DB" fill-opacity="0.2"/>
<circle cx="523.5" cy="517.5" r="1.5" fill="#D2D6DB" fill-opacity="0.2"/>
<circle cx="566.5" cy="517.5" r="1.5" fill="#D2D6DB" fill-opacity="0.2"/>
<circle cx="609.5" cy="517.5" r="1.5" fill="#D2D6DB" fill-opacity="0.2"/>
<circle cx="652.5" cy="517.5" r="1.5" fill="#D2D6DB" fill-opacity="0.2"/>
<circle cx="695.5" cy="517.5" r="1.5" fill="#D2D6DB" fill-opacity="0.2"/>
<circle cx="738.5" cy="517.5" r="1.5" fill="#D2D6DB" fill-opacity="0.2"/>
<circle cx="781.5" cy="517.5" r="1.5" fill="#D2D6DB" fill-opacity="0.2"/>
<circle cx="824.5" cy="517.5" r="1.5" fill="#D2D6DB" fill-opacity="0.2"/>
<circle cx="867.5" cy="517.5" r="1.5" fill="#D2D6DB" fill-opacity="0.2"/>
<circle cx="910.5" cy="517.5" r="1.5" fill="#D2D6DB" fill-opacity="0.2"/>
<circle cx="953.5" cy="517.5" r="1.5" fill="#D2D6DB" fill-opacity="0.2"/>
<circle cx="996.5" cy="517.5" r="1.5" fill="#D2D6DB" fill-opacity="0.2"/>
<circle cx="1039.5" cy="517.5" r="1.5" fill="#D2D6DB" fill-opacity="0.2"/>
<circle cx="1082.5" cy="517.5" r="1.5" fill="#D2D6DB" fill-opacity="0.2"/>
<circle cx="1125.5" cy="517.5" r="1.5" fill="#D2D6DB" fill-opacity="0.2"/>
<circle cx="1168.5" cy="517.5" r="1.5" fill="#D2D6DB" fill-opacity="0.2"/>
<circle cx="1211.5" cy="517.5" r="1.5" fill="#D2D6DB" fill-opacity="0.2"/>
<circle cx="1254.5" cy="517.5" r="1.5" fill="#D2D6DB" fill-opacity="0.2"/>
<circle cx="1297.5" cy="517.5" r="1.5" fill="#D2D6DB" fill-opacity="0.2"/>
<circle cx="1340.5" cy="517.5" r="1.5" fill="#D2D6DB" fill-opacity="0.2"/>
<circle cx="1383.5" cy="517.5" r="1.5" fill="#D2D6DB" fill-opacity="0.2"/>
<circle cx="1426.5" cy="517.5" r="1.5" fill="#D2D6DB" fill-opacity="0.2"/>
<circle cx="7.5" cy="560.5" r="1.5" fill="#D2D6DB" fill-opacity="0.2"/>
<circle cx="50.5" cy="560.5" r="1.5" fill="#D2D6DB" fill-opacity="0.2"/>
<circle cx="93.5" cy="560.5" r="1.5" fill="#D2D6DB" fill-opacity="0.2"/>
<circle cx="136.5" cy="560.5" r="1.5" fill="#D2D6DB" fill-opacity="0.2"/>
<circle cx="179.5" cy="560.5" r="1.5" fill="#D2D6DB" fill-opacity="0.2"/>
<circle cx="222.5" cy="560.5" r="1.5" fill="#D2D6DB" fill-opacity="0.2"/>
<circle cx="265.5" cy="560.5" r="1.5" fill="#D2D6DB" fill-opacity="0.2"/>
<circle cx="308.5" cy="560.5" r="1.5" fill="#D2D6DB" fill-opacity="0.2"/>
<circle cx="351.5" cy="560.5" r="1.5" fill="#D2D6DB" fill-opacity="0.2"/>
<circle cx="394.5" cy="560.5" r="1.5" fill="#D2D6DB" fill-opacity="0.2"/>
<circle cx="437.5" cy="560.5" r="1.5" fill="#D2D6DB" fill-opacity="0.2"/>
<circle cx="480.5" cy="560.5" r="1.5" fill="#D2D6DB" fill-opacity="0.2"/>
<circle cx="523.5" cy="560.5" r="1.5" fill="#D2D6DB" fill-opacity="0.2"/>
<circle cx="566.5" cy="560.5" r="1.5" fill="#D2D6DB" fill-opacity="0.2"/>
<circle cx="609.5" cy="560.5" r="1.5" fill="#D2D6DB" fill-opacity="0.2"/>
<circle cx="652.5" cy="560.5" r="1.5" fill="#D2D6DB" fill-opacity="0.2"/>
<circle cx="695.5" cy="560.5" r="1.5" fill="#D2D6DB" fill-opacity="0.2"/>
<circle cx="738.5" cy="560.5" r="1.5" fill="#D2D6DB" fill-opacity="0.2"/>
<circle cx="781.5" cy="560.5" r="1.5" fill="#D2D6DB" fill-opacity="0.2"/>
<circle cx="824.5" cy="560.5" r="1.5" fill="#D2D6DB" fill-opacity="0.2"/>
<circle cx="867.5" cy="560.5" r="1.5" fill="#D2D6DB" fill-opacity="0.2"/>
<circle cx="910.5" cy="560.5" r="1.5" fill="#D2D6DB" fill-opacity="0.2"/>
<circle cx="953.5" cy="560.5" r="1.5" fill="#D2D6DB" fill-opacity="0.2"/>
<circle cx="996.5" cy="560.5" r="1.5" fill="#D2D6DB" fill-opacity="0.2"/>
<circle cx="1039.5" cy="560.5" r="1.5" fill="#D2D6DB" fill-opacity="0.2"/>
<circle cx="1082.5" cy="560.5" r="1.5" fill="#D2D6DB" fill-opacity="0.2"/>
<circle cx="1125.5" cy="560.5" r="1.5" fill="#D2D6DB" fill-opacity="0.2"/>
<circle cx="1168.5" cy="560.5" r="1.5" fill="#D2D6DB" fill-opacity="0.2"/>
<circle cx="1211.5" cy="560.5" r="1.5" fill="#D2D6DB" fill-opacity="0.2"/>
<circle cx="1254.5" cy="560.5" r="1.5" fill="#D2D6DB" fill-opacity="0.2"/>
<circle cx="1297.5" cy="560.5" r="1.5" fill="#D2D6DB" fill-opacity="0.2"/>
<circle cx="1340.5" cy="560.5" r="1.5" fill="#D2D6DB" fill-opacity="0.2"/>
<circle cx="1383.5" cy="560.5" r="1.5" fill="#D2D6DB" fill-opacity="0.2"/>
<circle cx="1426.5" cy="560.5" r="1.5" fill="#D2D6DB" fill-opacity="0.2"/>
<circle cx="7.5" cy="603.5" r="1.5" fill="#D2D6DB" fill-opacity="0.2"/>
<circle cx="50.5" cy="603.5" r="1.5" fill="#D2D6DB" fill-opacity="0.2"/>
<circle cx="93.5" cy="603.5" r="1.5" fill="#D2D6DB" fill-opacity="0.2"/>
<circle cx="136.5" cy="603.5" r="1.5" fill="#D2D6DB" fill-opacity="0.2"/>
<circle cx="179.5" cy="603.5" r="1.5" fill="#D2D6DB" fill-opacity="0.2"/>
<circle cx="222.5" cy="603.5" r="1.5" fill="#D2D6DB" fill-opacity="0.2"/>
<circle cx="265.5" cy="603.5" r="1.5" fill="#D2D6DB" fill-opacity="0.2"/>
<circle cx="308.5" cy="603.5" r="1.5" fill="#D2D6DB" fill-opacity="0.2"/>
<circle cx="351.5" cy="603.5" r="1.5" fill="#D2D6DB" fill-opacity="0.2"/>
<circle cx="394.5" cy="603.5" r="1.5" fill="#D2D6DB" fill-opacity="0.2"/>
<circle cx="437.5" cy="603.5" r="1.5" fill="#D2D6DB" fill-opacity="0.2"/>
<circle cx="480.5" cy="603.5" r="1.5" fill="#D2D6DB" fill-opacity="0.2"/>
<circle cx="523.5" cy="603.5" r="1.5" fill="#D2D6DB" fill-opacity="0.2"/>
<circle cx="566.5" cy="603.5" r="1.5" fill="#D2D6DB" fill-opacity="0.2"/>
<circle cx="609.5" cy="603.5" r="1.5" fill="#D2D6DB" fill-opacity="0.2"/>
<circle cx="652.5" cy="603.5" r="1.5" fill="#D2D6DB" fill-opacity="0.2"/>
<circle cx="695.5" cy="603.5" r="1.5" fill="#D2D6DB" fill-opacity="0.2"/>
<circle cx="738.5" cy="603.5" r="1.5" fill="#D2D6DB" fill-opacity="0.2"/>
<circle cx="781.5" cy="603.5" r="1.5" fill="#D2D6DB" fill-opacity="0.2"/>
<circle cx="824.5" cy="603.5" r="1.5" fill="#D2D6DB" fill-opacity="0.2"/>
<circle cx="867.5" cy="603.5" r="1.5" fill="#D2D6DB" fill-opacity="0.2"/>
<circle cx="910.5" cy="603.5" r="1.5" fill="#D2D6DB" fill-opacity="0.2"/>
<circle cx="953.5" cy="603.5" r="1.5" fill="#D2D6DB" fill-opacity="0.2"/>
<circle cx="996.5" cy="603.5" r="1.5" fill="#D2D6DB" fill-opacity="0.2"/>
<circle cx="1039.5" cy="603.5" r="1.5" fill="#D2D6DB" fill-opacity="0.2"/>
<circle cx="1082.5" cy="603.5" r="1.5" fill="#D2D6DB" fill-opacity="0.2"/>
<circle cx="1125.5" cy="603.5" r="1.5" fill="#D2D6DB" fill-opacity="0.2"/>
<circle cx="1168.5" cy="603.5" r="1.5" fill="#D2D6DB" fill-opacity="0.2"/>
<circle cx="1211.5" cy="603.5" r="1.5" fill="#D2D6DB" fill-opacity="0.2"/>
<circle cx="1254.5" cy="603.5" r="1.5" fill="#D2D6DB" fill-opacity="0.2"/>
<circle cx="1297.5" cy="603.5" r="1.5" fill="#D2D6DB" fill-opacity="0.2"/>
<circle cx="1340.5" cy="603.5" r="1.5" fill="#D2D6DB" fill-opacity="0.2"/>
<circle cx="1383.5" cy="603.5" r="1.5" fill="#D2D6DB" fill-opacity="0.2"/>
<circle cx="1426.5" cy="603.5" r="1.5" fill="#D2D6DB" fill-opacity="0.2"/>
</g>
<defs>
<clipPath id="clip0_1_40">
<rect width="1600" height="800" fill="white" transform="translate(-80)"/>
</clipPath>
</defs>
</svg>
