<svg width="32" height="32" viewBox="0 0 32 32" fill="none" xmlns="http://www.w3.org/2000/svg">
<rect width="32" height="32" rx="16" fill="#630C92"/>
<path d="M18.333 13.6667C19.2613 13.6667 20.1515 14.0355 20.8079 14.6919C21.4643 15.3483 21.833 16.2385 21.833 17.1667V21.2501H19.4997V17.1667C19.4997 16.8573 19.3768 16.5606 19.158 16.3418C18.9392 16.123 18.6424 16.0001 18.333 16.0001C18.0236 16.0001 17.7268 16.123 17.508 16.3418C17.2893 16.5606 17.1663 16.8573 17.1663 17.1667V21.2501H14.833V17.1667C14.833 16.2385 15.2018 15.3483 15.8581 14.6919C16.5145 14.0355 17.4048 13.6667 18.333 13.6667Z" fill="#EFE7F4"/>
<path d="M12.5003 14.25H10.167V21.25H12.5003V14.25Z" fill="#EFE7F4"/>
<path d="M11.3337 12.5001C11.978 12.5001 12.5003 11.9777 12.5003 11.3334C12.5003 10.6891 11.978 10.1667 11.3337 10.1667C10.6893 10.1667 10.167 10.6891 10.167 11.3334C10.167 11.9777 10.6893 12.5001 11.3337 12.5001Z" fill="#EFE7F4"/>
</svg>
