<svg width="32" height="32" viewBox="0 0 32 32" fill="none" xmlns="http://www.w3.org/2000/svg">
<rect width="32" height="32" rx="16" fill="#630C92"/>
<path d="M18.917 10.1667H13.0837C11.4728 10.1667 10.167 11.4726 10.167 13.0834V18.9167C10.167 20.5276 11.4728 21.8334 13.0837 21.8334H18.917C20.5278 21.8334 21.8337 20.5276 21.8337 18.9167V13.0834C21.8337 11.4726 20.5278 10.1667 18.917 10.1667Z" fill="#EFE7F4"/>
<path d="M18.3338 15.6324C18.4058 16.1179 18.3229 16.6137 18.0968 17.0494C17.8708 17.485 17.5131 17.8383 17.0748 18.0589C16.6364 18.2796 16.1396 18.3564 15.655 18.2784C15.1705 18.2004 14.7228 17.9716 14.3758 17.6246C14.0288 17.2776 13.8 16.8299 13.722 16.3454C13.644 15.8608 13.7209 15.364 13.9415 14.9256C14.1622 14.4873 14.5154 14.1296 14.9511 13.9036C15.3867 13.6775 15.8825 13.5946 16.368 13.6666C16.8632 13.74 17.3216 13.9708 17.6756 14.3248C18.0296 14.6788 18.2604 15.1372 18.3338 15.6324Z" stroke="#630C92" stroke-linecap="round" stroke-linejoin="round"/>
<path d="M19.208 12.7917H19.2138" stroke="#630C92" stroke-width="2" stroke-linecap="round" stroke-linejoin="round"/>
</svg>
