<svg width="70" height="70" viewBox="0 0 70 70" fill="none" xmlns="http://www.w3.org/2000/svg">
<rect width="70" height="70" rx="35" fill="#630C92"/>
<path d="M45.3256 40.0784V43.0784C45.3267 43.3569 45.2697 43.6326 45.1581 43.8878C45.0466 44.1429 44.8829 44.372 44.6777 44.5603C44.4725 44.7486 44.2302 44.8919 43.9664 44.9811C43.7025 45.0704 43.423 45.1035 43.1456 45.0784C40.0685 44.7441 37.1126 43.6926 34.5156 42.0084C32.0994 40.4731 30.051 38.4246 28.5156 36.0084C26.8256 33.3996 25.7739 30.4294 25.4456 27.3384C25.4206 27.0619 25.4535 26.7832 25.5421 26.52C25.6307 26.2569 25.7732 26.0151 25.9604 25.81C26.1476 25.605 26.3754 25.4411 26.6294 25.3289C26.8834 25.2168 27.158 25.1587 27.4356 25.1584H30.4356C30.9209 25.1536 31.3914 25.3255 31.7594 25.642C32.1273 25.9584 32.3677 26.3979 32.4356 26.8784C32.5622 27.8385 32.7971 28.7811 33.1356 29.6884C33.2702 30.0463 33.2993 30.4353 33.2195 30.8093C33.1398 31.1833 32.9545 31.5265 32.6856 31.7984L31.4156 33.0684C32.8392 35.572 34.9121 37.6449 37.4156 39.0684L38.6856 37.7984C38.9575 37.5296 39.3008 37.3443 39.6747 37.2645C40.0487 37.1848 40.4377 37.2139 40.7956 37.3484C41.7029 37.687 42.6456 37.9218 43.6056 38.0484C44.0914 38.117 44.535 38.3616 44.8521 38.7359C45.1693 39.1102 45.3378 39.588 45.3256 40.0784Z" fill="#EFE7F4" stroke="#EFE7F4" stroke-width="2" stroke-linecap="round" stroke-linejoin="round"/>
</svg>
