<svg width="32" height="32" viewBox="0 0 32 32" fill="none" xmlns="http://www.w3.org/2000/svg">
<rect width="32" height="32" rx="16" fill="#630C92"/>
<path d="M22.4163 10.75C21.8577 11.144 21.2392 11.4454 20.5847 11.6425C20.2334 11.2386 19.7665 10.9522 19.2471 10.8223C18.7278 10.6923 18.181 10.725 17.6809 10.9159C17.1807 11.1068 16.7513 11.4467 16.4506 11.8897C16.1499 12.3326 15.9925 12.8572 15.9997 13.3925V13.9758C14.9745 14.0024 13.9588 13.7751 13.0428 13.314C12.1268 12.853 11.339 12.1725 10.7497 11.3333C10.7497 11.3333 8.41634 16.5833 13.6663 18.9167C12.465 19.7322 11.0338 20.141 9.58301 20.0833C14.833 23 21.2497 20.0833 21.2497 13.375C21.2491 13.2125 21.2335 13.0504 21.203 12.8908C21.7984 12.3037 22.2185 11.5624 22.4163 10.75Z" fill="#EFE7F4"/>
</svg>
